<!-- Generator: Adobe Illustrator 24.3.0, SVG Export Plug-In  -->
<svg version="1.1" xmlns="http://www.w3.org/2000/svg" xmlns:xlink="http://www.w3.org/1999/xlink" x="0px" y="0px"
	 width="525.99px" height="435.23px" viewBox="0 0 525.99 435.23"
	 style="overflow:visible;enable-background:new 0 0 525.99 435.23;" xml:space="preserve">
<style type="text/css">
	.st0{fill:#E6E6E6;}
	.st1{fill:#FFFFFF;}
	.st2{fill:#F2F2F2;}
	.st3{fill:#5A8170;}
	.st4{fill:#2F2E41;}
</style>
<defs>
</defs>
<path class="st0" d="M366.76,435.23c-1.17,0-2.33-0.31-3.35-0.89l-193.5-109.4c-3.27-1.86-4.43-6.01-2.58-9.29l152.4-269.57
	c1.85-3.28,6.01-4.43,9.29-2.58c0,0,0,0,0,0l193.5,109.4c3.27,1.86,4.43,6.01,2.58,9.29l-152.4,269.57
	c-0.89,1.58-2.37,2.74-4.11,3.22C368,435.15,367.38,435.23,366.76,435.23z"/>
<rect x="415.42" y="-2.31" transform="matrix(0.4922 -0.8705 0.8705 0.4922 111.1306 420.7891)" class="st1" width="1.58" height="234.92"/>
<rect x="401.42" y="22.45" transform="matrix(0.4922 -0.8705 0.8705 0.4922 82.4724 421.1776)" class="st1" width="1.58" height="234.92"/>
<rect x="387.42" y="47.2" transform="matrix(0.4922 -0.8705 0.8705 0.4922 53.8142 421.5661)" class="st1" width="1.58" height="234.92"/>
<rect x="373.43" y="71.96" transform="matrix(0.4922 -0.8705 0.8705 0.4922 25.1559 421.9546)" class="st1" width="1.58" height="234.92"/>
<rect x="359.43" y="96.71" transform="matrix(0.4922 -0.8705 0.8705 0.4922 -3.5023 422.3431)" class="st1" width="1.58" height="234.92"/>
<rect x="345.44" y="121.47" transform="matrix(0.4922 -0.8705 0.8705 0.4922 -32.1605 422.7316)" class="st1" width="1.58" height="234.92"/>
<rect x="331.44" y="146.23" transform="matrix(0.4922 -0.8705 0.8705 0.4922 -60.8187 423.1201)" class="st1" width="1.58" height="234.92"/>
<rect x="317.44" y="170.98" transform="matrix(0.4922 -0.8705 0.8705 0.4922 -89.477 423.5086)" class="st1" width="1.58" height="234.92"/>
<rect x="303.45" y="195.74" transform="matrix(0.4922 -0.8705 0.8705 0.4922 -118.1352 423.8971)" class="st1" width="1.58" height="234.92"/>
<rect x="289.45" y="220.49" transform="matrix(0.4922 -0.8705 0.8705 0.4922 -146.7934 424.2855)" class="st1" width="1.58" height="234.92"/>
<rect x="275.45" y="245.25" transform="matrix(0.4922 -0.8705 0.8705 0.4922 -175.4516 424.674)" class="st1" width="1.58" height="234.92"/>
<path class="st2" d="M348.76,394.23c-1.17,0-2.33-0.31-3.35-0.89l-193.5-109.4c-3.27-1.86-4.43-6.01-2.58-9.29L301.74,5.09
	c1.85-3.28,6.01-4.43,9.29-2.58c0,0,0,0,0,0l193.5,109.4c3.27,1.86,4.43,6.01,2.58,9.29l-152.4,269.57
	c-0.89,1.58-2.37,2.74-4.11,3.22C350,394.15,349.38,394.23,348.76,394.23z"/>
<rect x="397.42" y="-43.31" transform="matrix(0.4922 -0.8705 0.8705 0.4922 137.6802 384.2983)" class="st1" width="1.58" height="234.92"/>
<rect x="383.42" y="-18.55" transform="matrix(0.4922 -0.8705 0.8705 0.4922 109.022 384.6868)" class="st1" width="1.58" height="234.92"/>
<rect x="369.42" y="6.2" transform="matrix(0.4922 -0.8705 0.8705 0.4922 80.3638 385.0753)" class="st1" width="1.58" height="234.92"/>
<rect x="355.43" y="30.96" transform="matrix(0.4922 -0.8705 0.8705 0.4922 51.7055 385.4638)" class="st1" width="1.58" height="234.92"/>
<rect x="341.43" y="55.71" transform="matrix(0.4922 -0.8705 0.8705 0.4922 23.0473 385.8523)" class="st1" width="1.58" height="234.92"/>
<rect x="327.44" y="80.47" transform="matrix(0.4922 -0.8705 0.8705 0.4922 -5.6109 386.2408)" class="st1" width="1.58" height="234.92"/>
<rect x="313.44" y="105.23" transform="matrix(0.4922 -0.8705 0.8705 0.4922 -34.2691 386.6292)" class="st1" width="1.58" height="234.92"/>
<rect x="299.44" y="129.98" transform="matrix(0.4922 -0.8705 0.8705 0.4922 -62.9273 387.0177)" class="st1" width="1.58" height="234.92"/>
<rect x="285.45" y="154.74" transform="matrix(0.4922 -0.8705 0.8705 0.4922 -91.5856 387.4062)" class="st1" width="1.58" height="234.92"/>
<rect x="271.45" y="179.49" transform="matrix(0.4922 -0.8705 0.8705 0.4922 -120.2438 387.7947)" class="st1" width="1.58" height="234.92"/>
<rect x="257.45" y="204.25" transform="matrix(0.4922 -0.8705 0.8705 0.4922 -148.902 388.1832)" class="st1" width="1.58" height="234.92"/>
<path class="st3" d="M329.48,0H20.24v430h309.24c2.31,0,4.19-1.88,4.19-4.19V4.19C333.67,1.88,331.79,0,329.48,0z M37.69,418.13
	c-4.24,0-7.68-3.44-7.68-7.68c0-4.24,3.44-7.68,7.68-7.68c4.24,0,7.68,3.44,7.68,7.68C45.37,414.7,41.94,418.13,37.69,418.13
	C37.69,418.13,37.69,418.13,37.69,418.13z M37.69,379.04c-4.24,0-7.68-3.44-7.68-7.68c0-4.24,3.44-7.68,7.68-7.68
	c4.24,0,7.68,3.44,7.68,7.68C45.37,375.6,41.94,379.04,37.69,379.04C37.69,379.04,37.69,379.04,37.69,379.04L37.69,379.04z
	 M37.69,339.95c-4.24,0-7.68-3.44-7.68-7.68c0-4.24,3.44-7.68,7.68-7.68c4.24,0,7.68,3.44,7.68,7.68
	C45.37,336.51,41.94,339.95,37.69,339.95C37.69,339.95,37.69,339.95,37.69,339.95L37.69,339.95z M37.69,300.86
	c-4.24,0-7.68-3.44-7.68-7.68c0-4.24,3.44-7.68,7.68-7.68c4.24,0,7.68,3.44,7.68,7.68C45.37,297.42,41.94,300.86,37.69,300.86
	C37.69,300.86,37.69,300.86,37.69,300.86L37.69,300.86z M37.69,261.77c-4.24,0-7.68-3.44-7.68-7.68c0-4.24,3.44-7.68,7.68-7.68
	c4.24,0,7.68,3.44,7.68,7.68l0,0C45.37,258.33,41.94,261.77,37.69,261.77C37.69,261.77,37.69,261.77,37.69,261.77L37.69,261.77z
	 M37.69,222.68c-4.24,0-7.68-3.44-7.68-7.68c0-4.24,3.44-7.68,7.68-7.68c4.24,0,7.68,3.44,7.68,7.68l0,0
	C45.37,219.24,41.94,222.68,37.69,222.68C37.69,222.68,37.69,222.68,37.69,222.68L37.69,222.68z M37.69,183.59
	c-4.24,0-7.68-3.44-7.68-7.68c0-4.24,3.44-7.68,7.68-7.68c4.24,0,7.68,3.44,7.68,7.68l0,0C45.37,180.15,41.94,183.59,37.69,183.59
	C37.69,183.59,37.69,183.59,37.69,183.59L37.69,183.59z M37.69,144.5c-4.24,0-7.68-3.44-7.68-7.68c0-4.24,3.44-7.68,7.68-7.68
	c4.24,0,7.68,3.44,7.68,7.68l0,0C45.37,141.06,41.94,144.5,37.69,144.5C37.69,144.5,37.69,144.5,37.69,144.5L37.69,144.5z
	 M37.69,105.41c-4.24,0-7.68-3.44-7.68-7.68c0-4.24,3.44-7.68,7.68-7.68c4.24,0,7.68,3.44,7.68,7.68l0,0
	C45.37,101.97,41.94,105.41,37.69,105.41C37.69,105.41,37.69,105.41,37.69,105.41L37.69,105.41z M37.69,66.31
	c-4.24,0-7.68-3.44-7.68-7.68c0-4.24,3.44-7.68,7.68-7.68c4.24,0,7.68,3.44,7.68,7.68C45.37,62.88,41.94,66.31,37.69,66.31
	C37.69,66.31,37.69,66.31,37.69,66.31L37.69,66.31z M37.69,27.22c-4.24,0-7.68-3.44-7.68-7.68s3.44-7.68,7.68-7.68
	c4.24,0,7.68,3.44,7.68,7.68v0C45.37,23.79,41.94,27.22,37.69,27.22C37.69,27.22,37.69,27.22,37.69,27.22L37.69,27.22z"/>
<path class="st4" d="M20.24,62.13C18.17,62.13,0,62.03,0,58.64s18.17-3.49,20.24-3.49v1.4c-10.7,0-17.64,1.2-18.76,2.09
	c1.12,0.9,8.06,2.09,18.76,2.09c10.68,0,17.61-1.19,18.75-2.09c-0.54-0.38-2.76-1.19-8.71-1.7l0.12-1.39
	c10.08,0.87,10.08,2.48,10.08,3.09C40.49,62.03,22.32,62.13,20.24,62.13z"/>
<path class="st4" d="M20.24,101.22c-2.07,0-20.24-0.1-20.24-3.49s18.17-3.49,20.24-3.49v1.4c-10.7,0-17.64,1.2-18.76,2.09
	c1.12,0.9,8.06,2.09,18.76,2.09c10.68,0,17.61-1.19,18.75-2.09c-0.54-0.38-2.76-1.19-8.71-1.7l0.12-1.39
	c10.08,0.87,10.08,2.48,10.08,3.09C40.49,101.12,22.32,101.22,20.24,101.22z"/>
<path class="st4" d="M20.24,140.31c-2.07,0-20.24-0.1-20.24-3.49s18.17-3.49,20.24-3.49v1.4c-10.7,0-17.64,1.2-18.76,2.09
	c1.12,0.9,8.06,2.09,18.76,2.09c10.68,0,17.61-1.19,18.75-2.09c-0.54-0.38-2.76-1.19-8.71-1.7l0.12-1.39
	c10.08,0.87,10.08,2.48,10.08,3.09C40.49,140.21,22.32,140.31,20.24,140.31z"/>
<path class="st4" d="M20.24,179.4c-2.07,0-20.24-0.1-20.24-3.49s18.17-3.49,20.24-3.49v1.4c-10.7,0-17.64,1.2-18.76,2.09
	c1.12,0.9,8.06,2.09,18.76,2.09c10.68,0,17.61-1.19,18.75-2.09c-0.54-0.38-2.76-1.19-8.71-1.7l0.12-1.39
	c10.08,0.87,10.08,2.48,10.08,3.09C40.49,179.3,22.32,179.4,20.24,179.4z"/>
<path class="st4" d="M20.24,218.49C18.17,218.49,0,218.39,0,215s18.17-3.49,20.24-3.49v1.4c-10.7,0-17.64,1.2-18.76,2.09
	c1.12,0.9,8.06,2.09,18.76,2.09c10.68,0,17.61-1.19,18.75-2.09c-0.54-0.38-2.76-1.19-8.71-1.7l0.12-1.39
	c10.08,0.87,10.08,2.48,10.08,3.09C40.49,218.39,22.32,218.49,20.24,218.49z"/>
<path class="st4" d="M20.24,257.58c-2.07,0-20.24-0.1-20.24-3.49s18.17-3.49,20.24-3.49v1.4c-10.7,0-17.64,1.2-18.76,2.09
	c1.12,0.9,8.06,2.09,18.76,2.09c10.68,0,17.61-1.19,18.75-2.09c-0.54-0.38-2.76-1.19-8.71-1.7l0.12-1.39
	c10.08,0.87,10.08,2.48,10.08,3.09C40.49,257.48,22.32,257.58,20.24,257.58z"/>
<path class="st4" d="M20.24,296.67c-2.07,0-20.24-0.1-20.24-3.49s18.17-3.49,20.24-3.49v1.4c-10.7,0-17.64,1.2-18.76,2.09
	c1.12,0.9,8.06,2.09,18.76,2.09c10.68,0,17.61-1.19,18.75-2.09c-0.54-0.38-2.76-1.19-8.71-1.7l0.12-1.39
	c10.08,0.87,10.08,2.48,10.08,3.09C40.49,296.57,22.32,296.67,20.24,296.67z"/>
<path class="st4" d="M20.24,335.76c-2.07,0-20.24-0.1-20.24-3.49s18.17-3.49,20.24-3.49v1.4c-10.7,0-17.64,1.2-18.76,2.09
	c1.12,0.9,8.06,2.09,18.76,2.09c10.68,0,17.61-1.19,18.75-2.09c-0.54-0.38-2.76-1.19-8.71-1.7l0.12-1.39
	c10.08,0.87,10.08,2.48,10.08,3.09C40.49,335.67,22.32,335.76,20.24,335.76z"/>
<path class="st4" d="M20.24,374.85c-2.07,0-20.24-0.1-20.24-3.49s18.17-3.49,20.24-3.49v1.4c-10.7,0-17.64,1.2-18.76,2.09
	c1.12,0.9,8.06,2.09,18.76,2.09c10.68,0,17.61-1.19,18.75-2.09c-0.54-0.38-2.76-1.19-8.71-1.7l0.12-1.39
	c10.08,0.87,10.08,2.48,10.08,3.09C40.49,374.76,22.32,374.85,20.24,374.85z"/>
<path class="st4" d="M20.24,413.94c-2.07,0-20.24-0.1-20.24-3.49s18.17-3.49,20.24-3.49v1.4c-10.7,0-17.64,1.2-18.76,2.09
	c1.12,0.9,8.06,2.09,18.76,2.09c10.68,0,17.61-1.19,18.75-2.09c-0.54-0.38-2.76-1.19-8.71-1.7l0.12-1.39
	c10.08,0.87,10.08,2.48,10.08,3.09C40.49,413.85,22.32,413.94,20.24,413.94z"/>
<path class="st1" d="M266.31,164.39H112.74c-2.5,0-4.53-2.03-4.54-4.54V99.82c0-2.5,2.03-4.53,4.54-4.54h153.57
	c2.5,0,4.53,2.03,4.54,4.54v60.03C270.84,162.36,268.81,164.39,266.31,164.39z"/>
</svg>
